<svg xmlns="http://www.w3.org/2000/svg" width="135" height="135" viewBox="0 0 135 135"><defs><style>.a{isolation:isolate;}.c{opacity:0.25;mix-blend-mode:multiply;}.d{fill:#fff;}</style></defs><g class="a"><g class="c"></g><path class="d" d="M99,114.65a3.36,3.36,0,0,0-.21-.67,9.23,9.23,0,0,0-.85-1.48,39.62,39.62,0,0,0-5.69-6.16c-3-2.77-3.7-4.33-3.84-5.75s.42-3,.19-5.47h0c-.25-2.62-1.94-5.63-3.93-8.41a32.15,32.15,0,0,0-6-6.56c-.06,0-.78-.93-1.56-2a26,26,0,0,0-3-3.43,10.33,10.33,0,0,0-4.35-2.56,7.54,7.54,0,0,0-5.2.65c-.11,0-.18-.13-.29-.17a10.18,10.18,0,0,0-7.52.07A1.88,1.88,0,0,0,55.45,74s0,0,0,.06a7,7,0,0,0-4.59.29,2.2,2.2,0,0,0-1.14,1.24,2.46,2.46,0,0,0,0,1.17A55.48,55.48,0,0,1,38.5,61h0a4.48,4.48,0,0,0-.26-.49,18.39,18.39,0,0,0,9.56.22c4.53-1.25,8.28-5.19,9.43-11.18h0c1-5.25.19-11.57-3.66-16a12.16,12.16,0,0,0-8.11-3.93c.23-.13.42-.22.65-.37a9.7,9.7,0,0,0,3.7-4.07,9.39,9.39,0,0,0,.1-6.63h0c-1.3-4.14-5.18-6.41-9.09-7.33a16.89,16.89,0,0,0-4-.49H36.3a11,11,0,0,0-7,2.6h0c-1.95,1.72-2.55,4-2.95,6.42a47,47,0,0,0-.5,7.75c0,5.37.22,11.09-.19,13.23-1.1,5.69-1.19,9.73-3,14.54h0c-.85,2.33-3.68,5.54-6.52,8.3A5.19,5.19,0,0,0,10.67,66a5,5,0,0,0,2.09,6.88h0a5.26,5.26,0,0,0,2,.61A5.18,5.18,0,0,0,19.81,71a4.82,4.82,0,0,0,.55-3.24c3.06-2.84,6.33-6.37,7.83-10.47h0c2.1-5.71,2.2-10.25,3.21-15.44h0c.75-3.89.28-9.23.29-14.33a46,46,0,0,1,.42-6.79,7.48,7.48,0,0,1,1-3h0c1.07-.94,3.75-1.44,6.3-.83s4.48,2.16,4.87,3.4h0a3.23,3.23,0,0,1,.12,2.5,4,4,0,0,1-1.57,1.56c-1.84,1.21-5.19,2.26-7.85,5a2.93,2.93,0,0,0,.1,4.14,2.68,2.68,0,0,0,.87.57c3.11,1.34,6,1.08,8.24,1.24s3.49.4,4.92,2h0c2.12,2.43,3,7.38,2.32,11-.84,4.39-2.64,5.93-5.24,6.65a13.32,13.32,0,0,1-6.37-.23A5.18,5.18,0,0,0,37.43,52h0a5.25,5.25,0,0,0-7,1.93h0a5,5,0,0,0,1.71,6.65c-.08.11-.17.21-.25.31A3.59,3.59,0,0,0,31,62.7a9.66,9.66,0,0,0,.5,3.3,34,34,0,0,0,2.1,5.4A66.4,66.4,0,0,0,43.7,86.14a3.67,3.67,0,0,0-.8.52,18.77,18.77,0,0,0-2.33,3,6.82,6.82,0,0,0-1.5,2.89,5.68,5.68,0,0,0,.45,3.15c.87,2.25,2.69,5.21,5.4,10.83A3.71,3.71,0,0,0,46,108a15.88,15.88,0,0,0,1.9,1.57,49,49,0,0,0,5.84,3.46A90.39,90.39,0,0,0,69,119.25c1.51.43,2.78,2,3.62,3.65a16.41,16.41,0,0,1,1.22,3.1l1.89-.49A18.48,18.48,0,0,0,74.34,122c-1-1.83-2.43-3.94-4.81-4.63a89.12,89.12,0,0,1-15-6.05A49.2,49.2,0,0,1,49,108a14.49,14.49,0,0,1-1.65-1.35,3,3,0,0,1-.57-.77l0-.08,0-.08C44,100,42.08,96.9,41.34,95A3.76,3.76,0,0,1,41,92.9a5,5,0,0,1,1.12-2.05h0a26.17,26.17,0,0,1,2.09-2.73c.31-.27.49-.32.59-.31s.32.11.66.53c2.5,3.72,2.84,8.92,2.84,8.92l1.94.1a15,15,0,0,0-2.81-9.62l-.19-.29-.11-.16h0l-.07-.08A12.65,12.65,0,0,0,46,85.83h0A64.67,64.67,0,0,1,35.36,70.56a32.52,32.52,0,0,1-2-5.09A9.35,9.35,0,0,1,33,62.88h0a6.68,6.68,0,0,1,.46-.84,4.79,4.79,0,0,1,1.21-1.13,1.43,1.43,0,0,1,1.07-.27c.27.07.64.3,1.05,1.16h0c6.94,14.6,17.42,21.25,17.42,21.25l1.19-1.54a26.35,26.35,0,0,1-2.6-2.9,7.31,7.31,0,0,1-1.14-2,.94.94,0,0,1,0-.4s0,0,.12-.09c1.32-.62,3.26-.29,5.13.44a15.35,15.35,0,0,0,1.53,1.09A41.52,41.52,0,0,0,62.73,80l1-1.64a28.73,28.73,0,0,0-4.44-2.84c-.37-.19-.78-.36-1.19-.54-.16-.14-.45-.33-.54-.44a8,8,0,0,1,5.93-.06c.08,0,.14.09.21.12s0,0,0,0a2.3,2.3,0,0,0,.55.6,11.55,11.55,0,0,0,1.42,1c.5.33,1,.61,1.31.79l.25.11.15.06a.72.72,0,0,0,.38,0,.83.83,0,0,0,.63-.28,1.09,1.09,0,0,0,.28-.88c-.08-.41-.19-.43-.24-.49a2.3,2.3,0,0,0-.25-.23h0c-.41-.33-.93-.8-1.55-1.28a5.1,5.1,0,0,1,2.6,0,8.44,8.44,0,0,1,3.52,2.1,23.92,23.92,0,0,1,2.75,3.18,11.17,11.17,0,0,0,1.95,2.35,31.53,31.53,0,0,1,5.59,6.13c1.89,2.64,3.4,5.59,3.58,7.46.19,2-.38,3.52-.19,5.47s1.27,4.07,4.45,7h0a37.48,37.48,0,0,1,5.4,5.83,7.14,7.14,0,0,1,.67,1.14l.06.14ZM18.11,70h0a3.29,3.29,0,0,1-4.42,1.18h0A3,3,0,0,1,12.37,67h0a3.2,3.2,0,0,1,2.85-1.58h0a3.43,3.43,0,0,1,1.57.41h0A3,3,0,0,1,18.11,70ZM37.83,57.9A3.16,3.16,0,0,1,36.77,59a2.89,2.89,0,0,0-3.09.21l-.28-.13a3,3,0,0,1-1.31-4.2h0a3.18,3.18,0,0,1,2.85-1.58h0a3.3,3.3,0,0,1,1.57.4h0A3.05,3.05,0,0,1,37.83,57.9Z"/><path class="d" d="M62.61,51.87q0,4.91,4.15,4.9,3.6,0,7.94-3.43a34.6,34.6,0,0,0,7.82-9l1.42.78a30.91,30.91,0,0,1-8.53,10.15q-5.25,4-10,4a6.07,6.07,0,0,1-4.76-1.94A7.61,7.61,0,0,1,58.94,52a11.86,11.86,0,0,1,3.17-8.31,10,10,0,0,1,7.65-3.45,5.25,5.25,0,0,1,3.46,1.09,3.63,3.63,0,0,1,1.29,2.92q0,3-3.6,5.3A15.09,15.09,0,0,1,62.61,51.87Zm.13-1.61a11,11,0,0,0,6-2,5.21,5.21,0,0,0,2.5-4.21c0-1.42-.64-2.14-1.91-2.14a5.41,5.41,0,0,0-4.2,2.44A11.86,11.86,0,0,0,62.74,50.26Z"/><path class="d" d="M92,52.21a3,3,0,0,1,.46,1.44q0,1.65-2.78,3.63a8.93,8.93,0,0,1-5,2,3.82,3.82,0,0,1-3.27-1.79,7.84,7.84,0,0,1-1.26-4.62,35.57,35.57,0,0,1,1.65-9l.77-2.81H79.67a6.61,6.61,0,0,0-2.83.5,7.25,7.25,0,0,1,1.61-2.22,3.88,3.88,0,0,1,2.16-.45h2.53l.34-1.15a7.77,7.77,0,0,1,1.84-3.56,4.67,4.67,0,0,1,3.21-1l.81,0a21.39,21.39,0,0,0-2.72,5.64h8.85a8.32,8.32,0,0,0,3.55-.6,4,4,0,0,1-1.12,2.24,4.5,4.5,0,0,1-2.58.53H85.9c-.11.36-.19.64-.25.82a40.78,40.78,0,0,0-2,10.41q0,3.88,2.79,3.89A5.53,5.53,0,0,0,89.56,55,7.2,7.2,0,0,0,92,52.21Z"/><path class="d" d="M108.73,48.61a26.92,26.92,0,0,1-5.29,7.55c-2.09,2.07-3.92,3.1-5.47,3.1a3.24,3.24,0,0,1-2.84-1.58,7.42,7.42,0,0,1-1.07-4.21,14.37,14.37,0,0,1,3.18-9.23q3.18-4,7.35-4a11.76,11.76,0,0,1,5.48,1.58c.29-1,1.48-1.56,3.55-1.56l.66,0a11.18,11.18,0,0,0-1.46,4l-.29,1.43a28.36,28.36,0,0,0-.48,5.56c0,2.44.57,3.67,1.71,3.67s2.85-1,4.95-3a43.58,43.58,0,0,0,6.17-7.69l1.3.9a36.94,36.94,0,0,1-7.08,9.22q-4,3.69-6.85,3.69-3.61,0-3.62-6C108.63,51.16,108.67,50,108.73,48.61Zm.79-4q-3.52-2.3-5.85-2.3-2.53,0-4.38,3.08a13.91,13.91,0,0,0-1.85,7.29c0,2.26.74,3.38,2.22,3.38s4.65-3.5,9.17-10.51Z"/><polyline class="d" points="74 109 74 103 76 103 76 99 78 99 78 95 80 95 80 89 76 89 76 95 74 95 74 99 72 99 72 101 70 101 70 95 68 95 68 89 64 89 64 95 62 95 62 101 60 101 60 99 58 99 58 95 56 95 56 89 52 89 52 95 54 95 54 99 56 99 56 103 58 103 58 109 62 109 62 103 64 103 64 99 68 99 68 103 70 103 70 109"/></g></svg>